<?xml version="1.0" encoding="utf-8"?>
<!-- Generator: Adobe Illustrator 20.0.0, SVG Export Plug-In . SVG Version: 6.00 Build 0)  -->
<svg version="1.1" id="Ebene_1" xmlns="http://www.w3.org/2000/svg" xmlns:xlink="http://www.w3.org/1999/xlink" x="0px" y="0px"
	 viewBox="0 0 136.1 136.1" style="enable-background:new 0 0 136.1 136.1;" xml:space="preserve">
<style type="text/css">
	.st0{fill:#DE4F4F;}
</style>
<path class="st0" d="M129.9,59.5h-5.2c-1.1,0-1.9-0.9-1.9-1.9s0.9-1.9,1.9-1.9h5.2c1.1,0,1.9,0.9,1.9,1.9S130.9,59.5,129.9,59.5z
	 M119.6,59.5h-5.2c-1.1,0-1.9-0.9-1.9-1.9s0.9-1.9,1.9-1.9h5.2c1.1,0,1.9,0.9,1.9,1.9S120.6,59.5,119.6,59.5z M109.3,59.5h-5.2
	c-1.1,0-1.9-0.9-1.9-1.9s0.9-1.9,1.9-1.9h5.2c1.1,0,1.9,0.9,1.9,1.9S110.4,59.5,109.3,59.5z M99,59.5h-5c-1.1,0-1.9-0.9-1.9-1.9
	s0.9-1.9,1.9-1.9h5c1.1,0,1.9,0.9,1.9,1.9S100.1,59.5,99,59.5z M91.4,28.2l-0.9,3.2c-3.2,9.4-12.1,15.9-22.1,15.9
	c-6.8,0-13.2-2.9-17.7-8.1l-2.1-2.5l18-3.6v-3.8c-1.7-0.9-2.7-2.6-2.7-4.7c0-2.9,2.3-5.3,5.3-5.3c2.9,0,5.3,2.3,5.3,5.3
	c0,1.9-1.1,3.7-2.7,4.7V32L91.4,28.2z M69.1,23.3c-0.8,0-1.5,0.7-1.5,1.5c0,0.3,0.1,0.6,0.3,0.8l1.2,0.6l0,0l1.2-0.6
	c0.2-0.2,0.3-0.5,0.3-0.9C70.4,23.9,69.9,23.3,69.1,23.3z M69.6,36.5l-3,0.6l0,0l-10.3,2c3.3,2.8,7.7,4.3,12.2,4.3
	c7.2,0,13.6-3.9,17-10L69.6,36.5z M67.5,5.1c-1.6,0.2-3.1,0.6-4.6,1.2c-0.2,0.1-0.5,0.1-0.7,0.1c-0.8,0-1.5-0.5-1.8-1.3
	c-0.4-1,0.1-2.1,1.1-2.5c1.8-0.7,3.5-1.2,5.3-1.4c1.1-0.2,2,0.6,2.1,1.7C69.4,4,68.6,5,67.5,5.1z M67.3,12.5c0.2,1.1-0.6,2-1.7,2.1
	c-1.3,0.2-2.3,0.6-3.3,1.4c-0.4,0.3-0.8,0.4-1.2,0.4c-0.6,0-1.2-0.3-1.6-0.8c-0.6-0.9-0.4-2,0.5-2.7c1.5-1.1,3.2-1.8,5.1-2
	C66.2,10.6,67.1,11.4,67.3,12.5z M57.6,25.3c-0.1,0-0.2,0-0.3,0c-1,0-1.8-0.7-1.9-1.7c-0.1-0.5-0.1-1.1-0.1-1.6c0-1.6,0.3-3,0.9-4.5
	c0.4-1,1.6-1.5,2.5-1c1,0.4,1.5,1.6,1,2.5c-0.4,1-0.6,1.9-0.6,2.9c0,0.4,0,0.7,0.1,1.1C59.3,24.1,58.7,25.1,57.6,25.3z M58.9,8.5
	c-1.3,0.9-2.5,1.8-3.6,3c-0.4,0.4-0.9,0.6-1.4,0.6s-1-0.2-1.4-0.5c-0.8-0.7-0.8-1.9-0.1-2.7c1.3-1.4,2.7-2.5,4.3-3.6
	c0.9-0.6,2-0.4,2.7,0.5C59.9,6.6,59.7,7.9,58.9,8.5z M52.4,15.3c-0.8,1.4-1.5,2.8-1.9,4.3c-0.3,0.8-1,1.4-1.8,1.4
	c-0.2,0-0.4,0-0.6-0.1c-1-0.3-1.6-1.4-1.3-2.4c0.6-1.8,1.4-3.5,2.2-5.1c0.6-0.9,1.8-1.3,2.6-0.7C52.6,13.1,53,14.3,52.4,15.3z
	 M49.6,24.1c-0.1,0.6-0.1,1.2-0.1,1.8c0,1,0.1,1.9,0.2,2.9c0.2,1.1-0.6,2-1.7,2.1c-0.1,0-0.2,0-0.3,0c-1,0-1.8-0.7-1.9-1.7
	c-0.2-1.2-0.3-2.3-0.3-3.5c0-0.7,0-1.4,0.1-2c0.1-1.1,1.1-1.8,2-1.8C48.9,22.2,49.7,23.1,49.6,24.1z M41.7,63.4h-5.2
	c-1.1,0-1.9-0.9-1.9-1.9s0.9-1.9,1.9-1.9h5.2c1.1,0,1.9,0.9,1.9,1.9S42.8,63.4,41.7,63.4z M36.3,53.8h-3.2c-1.1,0-1.9-0.9-1.9-1.9
	s0.9-1.9,1.9-1.9h3.2c1.1,0,1.9,0.9,1.9,1.9C38.1,52.9,37.4,53.8,36.3,53.8z M27.9,53.8h-5.2c-1.1,0-1.9-0.9-1.9-1.9
	s0.9-1.9,1.9-1.9h5.2c1.1,0,1.9,0.9,1.9,1.9C29.8,52.9,29,53.8,27.9,53.8z M23.1,61.5c0,1.1-0.9,1.9-1.9,1.9H16
	c-1.1,0-1.9-0.9-1.9-1.9s0.9-1.9,1.9-1.9h5.2C22.2,59.5,23.1,60.4,23.1,61.5z M26.3,63.4c-1.1,0-1.9-0.9-1.9-1.9s0.9-1.9,1.9-1.9
	h5.2c1.1,0,1.9,0.9,1.9,1.9s-0.9,1.9-2,1.9H26.3z M49.4,57.7c0-5.5,4.5-10,10-10h17.8c5.5,0,10,4.5,10,10v11.1h31.5l13.4,12.6H87.3
	v35.9c0,5.5-4.5,10-10,10h-1.7v7.4H61.1v-7.4h-1.7c-5.5,0-10-4.5-10-10V83.6H17.6L4.3,70.9h45.1C49.4,70.9,49.4,57.7,49.4,57.7z
	 M87.3,77.5h35.1l-5.2-5h-30L87.3,77.5L87.3,77.5z M65,130.9h6.8v-3.6H65C65,127.3,65,130.9,65,130.9z M53.3,117.3
	c0,3.4,2.7,6.1,6.1,6.1h17.8c3.4,0,6.1-2.7,6.1-6.1V81.4V68.8V57.7c0-3.4-2.7-6.1-6.1-6.1H59.4c-3.4,0-6.1,2.7-6.1,6.1v13.2l3.5,3.3
	V58.8c0-1.1,0.9-1.9,1.9-1.9s1.9,0.9,1.9,1.9v18.9c0,0.1,0,0.2,0,0.3l6,5.6h-5.9v36.1c0,1.1-0.9,1.9-1.9,1.9s-1.9-0.9-1.9-1.9V83.6
	h-3.5L53.3,117.3L53.3,117.3z M13.9,74.8l5.2,5h30.3h7.5l-5.2-5h-2.3H13.9z M65.1,100.1H71c1.1,0,1.9,0.9,1.9,1.9s-0.9,1.9-1.9,1.9
	h-5.9c-1.1,0-1.9-0.9-1.9-1.9S64,100.1,65.1,100.1z M65.5,112.5h5.2c1.1,0,1.9,0.9,1.9,1.9s-0.9,1.9-1.9,1.9h-5.2
	c-1.1,0-1.9-0.9-1.9-1.9C63.5,113.3,64.4,112.5,65.5,112.5z M71.2,69.6H65c-1.1,0-1.9-0.9-1.9-1.9s0.9-1.9,1.9-1.9h6.2
	c1.1,0,1.9,0.9,1.9,1.9C73.1,68.7,72.3,69.6,71.2,69.6z M77.9,56.1c1.1,0,1.9,0.9,1.9,1.9v61.6c0,1.1-0.9,1.9-1.9,1.9
	s-1.9-0.9-1.9-1.9V58.1C76,57,76.9,56.1,77.9,56.1z M9.1,92.8h5.2c1.1,0,1.9,0.9,1.9,1.9s-0.9,1.9-1.9,1.9H9.1
	c-1.1,0-1.9-0.9-1.9-1.9C7.2,93.6,8,92.8,9.1,92.8z M19.4,92.8h5.1c1.1,0,1.9,0.9,1.9,1.9s-0.9,1.9-1.9,1.9h-5.2
	c-1.1,0-1.9-0.9-1.9-1.9C17.4,93.6,18.3,92.8,19.4,92.8z M29.7,92.8h5.2c1.1,0,1.9,0.9,1.9,1.9s-0.9,1.9-1.9,1.9h-5.2
	c-1.1,0-1.9-0.9-1.9-1.9C27.7,93.6,28.6,92.8,29.7,92.8z M39.9,92.8h5.2c1.1,0,1.9,0.9,1.9,1.9s-0.9,1.9-1.9,1.9h-5.2
	c-1.1,0-1.9-0.9-1.9-1.9C38,93.6,38.8,92.8,39.9,92.8z M94.1,87h5.2c1.1,0,1.9,0.9,1.9,1.9s-0.9,1.9-1.9,1.9h-5.2
	c-1.1,0-1.9-0.9-1.9-1.9S93,87,94.1,87z M99.5,96.6h3.2c1.1,0,1.9,0.9,1.9,1.9s-0.9,1.9-1.9,1.9h-3.2c-1.1,0-1.9-0.9-1.9-1.9
	S98.5,96.6,99.5,96.6z M104.4,90.9c-1.1,0-1.9-0.9-1.9-1.9s0.9-1.9,1.9-1.9h5.2c1.1,0,1.9,0.9,1.9,1.9s-0.9,1.9-1.9,1.9H104.4z
	 M107.9,96.6h5.2c1.1,0,1.9,0.9,1.9,1.9s-0.9,1.9-1.9,1.9h-5.2c-1.1,0-1.9-0.9-1.9-1.9S106.8,96.6,107.9,96.6z M112.7,88.9
	c0-1.1,0.9-1.9,1.9-1.9h5.2c1.1,0,1.9,0.9,1.9,1.9s-0.9,1.9-1.9,1.9h-5.2C113.5,90.9,112.7,90,112.7,88.9z"/>
</svg>
