<?xml version="1.0" encoding="utf-8"?>
<!-- Generator: Adobe Illustrator 20.0.0, SVG Export Plug-In . SVG Version: 6.00 Build 0)  -->
<svg version="1.1" id="Ebene_1" xmlns="http://www.w3.org/2000/svg" xmlns:xlink="http://www.w3.org/1999/xlink" x="0px" y="0px"
	 viewBox="0 0 136.1 136.1" style="enable-background:new 0 0 136.1 136.1;" xml:space="preserve">
<style type="text/css">
	.st0{fill:#DE4F4F;}
</style>
<path class="st0" d="M117.3,134.8h-14.9H33.6H18.7c-6.5,0-11.8-5.3-11.8-11.8V89.1c0-10.2,5.7-19,14.1-23.5
	c-0.3-0.3-0.4-0.7-0.4-1.2v0c0,0,0,0,0,0c0-7.5,6.2-13.7,13.7-13.7h3.5c-0.1-0.4-0.2-0.9-0.3-1.3h-0.5c-4.7,0-8.6-3.9-8.6-8.6v-6.1
	c0-4.7,3.9-8.6,8.6-8.6h1.4C42.1,13.4,54,4.2,67.9,4.2h0.3c8.2,0,15.7,3.2,21.3,8.4V3.2c0-1.1,0.9-1.9,1.9-1.9
	c1.1,0,1.9,0.9,1.9,1.9v13.9c2,2.7,3.5,5.7,4.5,9h1.4c4.7,0,8.6,3.9,8.6,8.6v6.1c0,4.7-3.9,8.6-8.6,8.6h-0.5
	c-0.1,0.4-0.2,0.9-0.3,1.3h3.5c7.6,0,13.7,6.1,13.7,13.7c0,0,0,0,0,0v0c0,0.5-0.2,0.9-0.4,1.2c8.4,4.5,14,13.3,14,23.5V123
	C129.2,129.5,123.9,134.8,117.3,134.8z M36.9,44.5v-9.3V30c-2.6,0-4.7,2.1-4.7,4.7v6.1c0,2.6,2.1,4.7,4.7,4.7V44.5z M99.2,35.2v9.3
	v1c2.6,0,4.7-2.1,4.7-4.7v-6.1c0-2.6-2.1-4.7-4.7-4.7V35.2z M35.5,130.9h65V66.3H79.7c-0.8,0.1-1.6,0.1-2.4,0.1H58.8
	c-0.8,0-1.6,0-2.4-0.1H35.5V130.9z M10.8,123c0,4.4,3.6,7.9,7.9,7.9h12.9V91H10.8V123z M10.9,87.1h20.8V66.4
	C20.6,67.3,11.8,76.1,10.9,87.1z M34.3,54.5c-5.3,0-9.6,4.2-9.8,9.5c2.9-1,5.9-1.6,9.1-1.6h12.6c-2.9-2-5.2-4.7-6.8-7.9H34.3z
	 M95.3,35.2c0-14.9-12.2-27.1-27.1-27.1h-0.3C53,8.1,40.8,20.2,40.8,35.2v9.3c0,9.2,6.9,16.8,15.9,17.9h22.8
	c8.9-1.1,15.9-8.7,15.9-17.9V35.2z M101.8,54.5h-4.9c-0.1,0-0.1,0-0.2,0c-1.6,3.1-4,5.8-6.9,7.9h12.6c3.2,0,6.3,0.6,9.2,1.6
	C111.5,58.8,107.1,54.5,101.8,54.5z M104.4,66.4v20.8h20.8C124.3,76.1,115.5,67.3,104.4,66.4z M125.3,91h-20.9v39.9h12.9
	c4.4,0,7.9-3.6,7.9-7.9V91z M74,57.7H62.1c-9.4,0-17-7.6-17-17c0-9.4,7.6-17,17-17H74c9.4,0,17,7.6,17,17C91,50.1,83.4,57.7,74,57.7
	z M74,27.6H62.1c-7.2,0-13.1,5.9-13.1,13.1c0,7.2,5.9,13.1,13.1,13.1H74c7.2,0,13.1-5.9,13.1-13.1C87.1,33.4,81.2,27.6,74,27.6z
	 M59.2,43.7c-0.4,0.4-0.9,0.6-1.4,0.6c-0.5,0-1-0.2-1.4-0.6c-0.8-0.8-0.8-2,0-2.7l6.9-6.9c0.8-0.8,2-0.8,2.8,0c0.8,0.8,0.8,2,0,2.7
	L59.2,43.7z M55.9,38.9c-0.4,0.4-0.9,0.6-1.4,0.6c-0.5,0-1-0.2-1.4-0.6c-0.8-0.8-0.8-2,0-2.7l3.6-3.6c0.8-0.8,2-0.8,2.8,0
	c0.8,0.8,0.8,2,0,2.7L55.9,38.9z M90.4,84v34.3c0,1.1-0.9,1.9-1.9,1.9H47.6c-1.1,0-1.9-0.9-1.9-1.9V84c0-1.1,0.9-1.9,1.9-1.9h40.9
	C89.5,82,90.4,82.9,90.4,84z M86.5,85.9h-37v30.4h37V85.9z M58.5,90.9h19.1c1.1,0,1.9,0.9,1.9,1.9c0,1.1-0.9,1.9-1.9,1.9H58.5
	c-1.1,0-1.9-0.9-1.9-1.9C56.6,91.8,57.4,90.9,58.5,90.9z M58.5,99.2h19.1c1.1,0,1.9,0.9,1.9,1.9c0,1.1-0.9,1.9-1.9,1.9H58.5
	c-1.1,0-1.9-0.9-1.9-1.9C56.6,100,57.4,99.2,58.5,99.2z M58.5,107.4h19.1c1.1,0,1.9,0.9,1.9,1.9s-0.9,1.9-1.9,1.9H58.5
	c-1.1,0-1.9-0.9-1.9-1.9S57.4,107.4,58.5,107.4z"/>
</svg>
