<?xml version="1.0" encoding="utf-8"?>
<!-- Generator: Adobe Illustrator 20.0.0, SVG Export Plug-In . SVG Version: 6.00 Build 0)  -->
<svg version="1.1" id="Ebene_1" xmlns="http://www.w3.org/2000/svg" xmlns:xlink="http://www.w3.org/1999/xlink" x="0px" y="0px"
	 viewBox="0 0 136.1 136.1" style="enable-background:new 0 0 136.1 136.1;" xml:space="preserve">
<style type="text/css">
	.st0{fill:#DE4F4F;}
</style>
<path class="st0" d="M134.3,74.5c-0.1,1.1-1,1.9-2.1,1.9c-0.1,0-0.1,0-0.2,0c-1.2-0.1-2-1.1-1.9-2.3c0.2-1.8,0.2-3.5,0.2-5.4
	c0-1.2,1-2.1,2.1-2.1c1.2,0,2.1,0.9,2.1,2.1C134.5,70.6,134.5,72.5,134.3,74.5z M131.8,77.7c1.2,0.2,1.9,1.3,1.7,2.5
	c-0.3,1.9-0.8,3.7-1.3,5.6c-0.3,0.9-1.1,1.6-2,1.6c-0.2,0-0.4,0-0.6-0.1c-1.1-0.3-1.8-1.5-1.5-2.6c0.5-1.8,0.9-3.4,1.2-5.2
	C129.6,78.3,130.8,77.5,131.8,77.7z M129.3,88.5c1.1,0.4,1.7,1.6,1.3,2.7c-0.7,1.8-1.4,3.5-2.3,5.3c-0.4,0.8-1.1,1.2-1.9,1.2
	c-0.3,0-0.6-0.1-0.9-0.2c-1.1-0.5-1.5-1.8-1-2.8c0.8-1.6,1.5-3.2,2.1-4.9C127,88.7,128.2,88.1,129.3,88.5z M125.6,101.6
	c-1,1.7-2.1,3.2-3.1,4.8c-0.4,0.6-1.1,0.9-1.7,0.9c-0.4,0-0.9-0.1-1.2-0.4c-1-0.7-1.2-2-0.5-2.9c1.1-1.5,2.1-2.9,2.9-4.5
	c0.6-1,1.9-1.3,2.8-0.8C125.8,99.3,126.2,100.6,125.6,101.6z M69.5,121.3c-13.7,0-26.6-5.2-36.4-14.7c-9.3-9-14.9-20.9-16-33.7
	c-4.6-0.2-8.3-4-8.3-8.7c0-4.8,3.9-8.7,8.7-8.7c0.4,0,0.8,0,1.1,0.1c5.9-23,27-39.5,51-39.5c29.1,0,52.7,23.6,52.7,52.7
	C122.1,97.7,98.4,121.3,69.5,121.3z M18.4,59.8c-0.4-0.1-0.7-0.1-1.1-0.1c-2.6,0-4.6,2.1-4.6,4.6c0,2.6,2.1,4.6,4.6,4.6
	c0.1,0,0.2,0,0.3,0c2.5-0.2,4.3-2.2,4.3-4.5C21.9,62.1,20.4,60.3,18.4,59.8z M69.5,18C46.4,18,26,33.9,20.3,56
	c3.4,1.3,5.7,4.4,5.7,8.2c0,4.2-3,7.9-7.2,8.5c2.1,26.3,23.9,46.6,50.5,46.6c28,0,50.7-22.7,50.7-50.7S97.4,18,69.5,18z M101.8,98.1
	c0,3.8-3,6.9-6.9,6.9c-2,0-3.8-0.9-5.1-2.3c-6.2,3.7-13.2,5.7-20.3,5.7c-7.9,0-15.3-2.4-21.9-6.7c-1,0.8-2.3,1.3-3.6,1.3
	c-3.3,0-6-2.7-6-6c0-1.1,0.3-2.2,0.9-3c-5.8-7.1-9-15.9-9-25.1c0-21.8,17.8-39.6,39.7-39.6c0.3,0,0.7,0,1,0c1.2-3.5,4.4-6.1,8.3-6.1
	c4.8,0,8.7,3.9,8.7,8.7c0,0.5-0.1,1.1-0.2,1.6c13.3,6.8,21.8,20.3,21.8,35.4c0,9.1-3.1,17.9-8.9,25
	C101.2,94.9,101.8,96.5,101.8,98.1z M92.7,99.6c0.5,0.7,1.4,1.2,2.3,1.2c1.5,0,2.7-1.2,2.7-2.7c0-0.8-0.3-1.5-0.9-2
	c-0.5-0.5-1.2-0.7-1.9-0.7c-1.5,0-2.7,1.2-2.7,2.7C92.2,98.6,92.3,99.1,92.7,99.6z M78.7,27.2c-2.1,0-3.9,1.4-4.4,3.4
	c-0.1,0.4-0.1,0.7-0.1,1.1c0,2.6,2.1,4.6,4.6,4.6c2.1,0,3.9-1.5,4.4-3.4c0.1-0.4,0.1-0.7,0.1-1.1C83.3,29.3,81.2,27.2,78.7,27.2z
	 M107.1,68.7c0-14.1-8-27-20.4-33.4c-1.4,3.1-4.5,5.3-8.1,5.3c-4.8,0-8.7-3.9-8.7-8.7c0-0.3,0-0.5,0-0.8c-0.2,0-0.4,0-0.6,0
	c-20.8,0-37.7,16.9-37.7,37.6c0,8.6,2.9,16.9,8.3,23.6c1.1-0.9,2.5-1.4,3.8-1.4c3.3,0,6,2.7,6,6c0,1.2-0.4,2.4-1.1,3.3
	c6.1,4,13.2,6.1,20.5,6.1c6.9,0,13.5-1.9,19.3-5.3c-0.4-0.9-0.7-2-0.7-2.9c0-3.8,3-6.9,6.9-6.9c1.4,0,2.7,0.4,3.8,1.2
	C104.1,85.7,107.1,77.3,107.1,68.7z M69.5,96.4c-15.3,0-27.7-12.4-27.7-27.7C41.8,53.4,54.2,41,69.5,41c13.8,0,25.2,9.9,27.3,23.4
	c2.4,0.8,4.1,3,4.1,5.7c0,2.8-2.1,5.3-4.7,5.9C92.9,87.8,81.9,96.4,69.5,96.4z M69.5,45.2c-13,0-23.6,10.5-23.6,23.6
	c0,13,10.6,23.6,23.6,23.6c10.5,0,19.7-7.1,22.6-17c-0.3-0.1-0.5-0.3-0.7-0.5c-0.1-0.1-0.2-0.2-0.3-0.2c-0.2-0.1-0.3-0.3-0.5-0.4
	c-0.1-0.1-0.2-0.2-0.3-0.3c-0.2-0.2-0.3-0.4-0.4-0.6c0-0.1-0.1-0.1-0.1-0.2c-0.2-0.3-0.3-0.6-0.4-0.9c0-0.1-0.1-0.2-0.1-0.3
	c-0.1-0.2-0.2-0.5-0.2-0.7c0-0.1,0-0.2-0.1-0.3c-0.1-0.3-0.1-0.7-0.1-1c0-0.4,0-0.7,0.1-1.1c0-0.1,0-0.2,0.1-0.3
	c0.1-0.3,0.1-0.5,0.2-0.8c0-0.1,0.1-0.2,0.1-0.3c0.3-0.7,0.7-1.2,1.2-1.7c0.1-0.1,0.1-0.1,0.2-0.2c0.2-0.2,0.4-0.3,0.6-0.5
	c0.1-0.1,0.2-0.1,0.3-0.2c0.3-0.2,0.6-0.4,0.9-0.5l0,0l0,0C90.6,53.3,80.9,45.2,69.5,45.2z M69.5,83.4c-8.1,0-14.6-6.6-14.6-14.6
	s6.6-14.6,14.6-14.6c8.1,0,14.6,6.6,14.6,14.6S77.5,83.4,69.5,83.4z M69.5,58.2c-5.8,0-10.5,4.7-10.5,10.5s4.7,10.5,10.5,10.5
	S80,74.5,80,68.7C80,62.9,75.3,58.2,69.5,58.2z M62.3,6.6c-1.8,0.1-3.5,0.3-5.3,0.6c-0.1,0-0.2,0-0.3,0c-1,0-1.9-0.7-2.1-1.8
	c-0.2-1.2,0.6-2.2,1.8-2.4c1.9-0.3,3.8-0.5,5.7-0.7c1.1-0.1,2.2,0.8,2.3,2C64.2,5.5,63.5,6.5,62.3,6.6z M51.7,8.3
	c-1.8,0.4-3.4,1-5.1,1.6c-0.2,0.1-0.5,0.1-0.7,0.1c-0.9,0-1.7-0.5-2-1.4c-0.4-1.1,0.2-2.3,1.3-2.7c1.8-0.6,3.6-1.2,5.5-1.7
	c1.1-0.3,2.3,0.4,2.6,1.5C53.4,6.9,52.8,8,51.7,8.3z M41.6,11.8c-1.6,0.7-3.2,1.6-4.8,2.5c-0.3,0.2-0.7,0.3-1,0.3
	c-0.7,0-1.5-0.4-1.9-1.1c-0.6-1-0.2-2.3,0.8-2.8c1.7-1,3.3-1.8,5.1-2.6c1.1-0.5,2.3,0,2.8,1.1C43,10.1,42.6,11.3,41.6,11.8z
	 M32.2,17.1c-1.5,1-2.9,2.1-4.3,3.2c-0.4,0.3-0.9,0.5-1.3,0.5c-0.6,0-1.2-0.3-1.6-0.8c-0.7-0.9-0.6-2.2,0.3-2.9
	c1.5-1.2,3-2.4,4.6-3.4c1-0.7,2.3-0.4,2.8,0.5C33.4,15.1,33.2,16.4,32.2,17.1z M24,23.9c-1.3,1.3-2.5,2.6-3.6,3.9
	c-0.4,0.5-1,0.7-1.6,0.7c-0.5,0-1-0.2-1.4-0.5c-0.9-0.8-1-2.1-0.2-2.9c1.3-1.5,2.6-2.8,3.9-4.2c0.8-0.8,2.2-0.8,2.9,0
	C24.8,21.8,24.8,23.1,24,23.9z M17,32c-1.1,1.5-2.1,2.9-2.9,4.5c-0.4,0.7-1.1,1-1.8,1c-0.4,0-0.7-0.1-1.1-0.3
	c-1-0.6-1.3-1.9-0.8-2.8c1-1.7,2.1-3.2,3.1-4.8c0.7-1,2-1.2,2.9-0.5C17.4,29.9,17.6,31.1,17,32z M11.5,41.4
	c-0.8,1.6-1.5,3.2-2.1,4.9c-0.3,0.9-1.1,1.4-2,1.4c-0.2,0-0.5,0-0.7-0.1c-1.1-0.4-1.7-1.6-1.3-2.7c0.7-1.8,1.4-3.5,2.3-5.3
	c0.5-1.1,1.8-1.5,2.8-1C11.6,39,12,40.3,11.5,41.4z M6.3,48.8c1.1,0.3,1.8,1.5,1.5,2.6c-0.5,1.8-0.9,3.4-1.2,5.2
	c-0.2,1-1.1,1.8-2.1,1.8c-0.1,0-0.2,0-0.4,0c-1.2-0.2-1.9-1.3-1.7-2.5c0.3-1.9,0.8-3.7,1.3-5.6C4,49.2,5.2,48.5,6.3,48.8z M4,59.7
	c1.2,0.1,2,1.1,1.9,2.3c-0.2,1.8-0.2,3.5-0.2,5.4c0,1.2-1,2.1-2.1,2.1s-2.2-1-2.2-2.2c0-1.9,0.1-3.8,0.3-5.7
	C1.9,60.4,2.9,59.6,4,59.7z M73.8,129.5c1.8-0.1,3.5-0.3,5.3-0.6c1.1-0.2,2.2,0.6,2.4,1.8c0.2,1.2-0.6,2.2-1.8,2.4
	c-1.9,0.3-3.8,0.5-5.7,0.7c-0.1,0-0.1,0-0.2,0c-1.1,0-2-0.9-2.1-2C71.7,130.6,72.6,129.6,73.8,129.5z M84.4,127.8
	c1.8-0.4,3.4-1,5.1-1.6c1.1-0.4,2.3,0.2,2.7,1.3c0.4,1.1-0.2,2.3-1.3,2.7c-1.8,0.6-3.6,1.2-5.5,1.7c-0.2,0-0.3,0.1-0.5,0.1
	c-0.9,0-1.8-0.6-2.1-1.6C82.5,129.2,83.2,128,84.4,127.8z M94.5,124.3c1.7-0.7,3.2-1.6,4.8-2.5c1-0.6,2.3-0.2,2.8,0.8
	c0.6,1,0.2,2.3-0.8,2.8c-1.7,1-3.3,1.8-5.1,2.6c-0.3,0.1-0.6,0.2-0.9,0.2c-0.8,0-1.6-0.5-1.9-1.2C92.9,125.9,93.4,124.7,94.5,124.3z
	 M103.8,119c1.5-1,2.9-2.1,4.3-3.2c0.9-0.7,2.2-0.6,2.9,0.3c0.7,0.9,0.6,2.2-0.3,2.9c-1.5,1.2-3,2.4-4.6,3.4
	c-0.4,0.3-0.8,0.4-1.2,0.4c-0.7,0-1.3-0.3-1.8-0.9C102.7,120.9,102.9,119.6,103.8,119z M112.1,112.1c1.3-1.3,2.5-2.6,3.6-3.9
	c0.8-0.9,2.1-1,2.9-0.2s1,2.1,0.2,2.9c-1.3,1.5-2.6,2.8-3.9,4.2c-0.4,0.4-1,0.6-1.5,0.6c-0.6,0-1.1-0.2-1.5-0.6
	C111.3,114.2,111.3,113,112.1,112.1z"/>
</svg>
